<svg xmlns="http://www.w3.org/2000/svg" version="1.1" xmlns:xlink="http://www.w3.org/1999/xlink" xmlns:svgjs="http://svgjs.dev/svgjs" width="1500" height="1500" viewBox="0 0 1500 1500"><g transform="matrix(1,0,0,1,-0.21332335329316265,-0.21332335329350371)"><svg viewBox="0 0 334 334" data-background-color="#ffffff" preserveAspectRatio="xMidYMid meet" height="1500" width="1500" xmlns="http://www.w3.org/2000/svg" xmlns:xlink="http://www.w3.org/1999/xlink"><g id="tight-bounds" transform="matrix(1,0,0,1,0.04749999999998522,0.04750000000001364)"><svg viewBox="0 0 333.90454557049503 333.90454557049503" height="333.90454557049503" width="333.90454557049503"><g><svg></svg></g><g><svg viewBox="0 0 333.90454557049503 333.90454557049503" height="333.90454557049503" width="333.90454557049503"><g><path d="M0 166.952c0-92.205 74.747-166.952 166.952-166.952 92.205 0 166.952 74.747 166.953 166.952 0 92.205-74.747 166.952-166.953 166.953-92.205 0-166.952-74.747-166.952-166.953zM166.952 326.791c88.276 0 159.838-71.562 159.839-159.839 0-88.276-71.562-159.838-159.839-159.838-88.276 0-159.838 71.562-159.838 159.838 0 88.276 71.562 159.838 159.838 159.839z" data-fill-palette-color="tertiary" fill="#000000" stroke="transparent"></path><ellipse rx="160.27418187383762" ry="160.27418187383762" cx="166.95227278524752" cy="166.95227278524752" fill="#000000" stroke="transparent" stroke-width="0" fill-opacity="1" data-fill-palette-color="tertiary"></ellipse></g><g transform="matrix(1,0,0,1,91.51239961720876,71.17305217166896)"><svg viewBox="0 0 150.87974633607752 191.55844122715712" height="191.55844122715712" width="150.87974633607752"><g><svg viewBox="0 0 150.87974633607752 191.55844122715712" height="191.55844122715712" width="150.87974633607752"><g><svg viewBox="0 0 213.15844122715708 270.6280977231548" height="191.55844122715712" width="150.87974633607752"><g transform="matrix(1,0,0,1,0,159.1829627663937)"><svg viewBox="0 0 213.15844122715708 111.44513495676107" height="111.44513495676107" width="213.15844122715708"><g id="textblocktransform"><svg viewBox="0 0 213.15844122715708 111.44513495676107" height="111.44513495676107" width="213.15844122715708" id="textblock"><g><svg viewBox="0 0 213.15844122715708 111.44513495676107" height="111.44513495676107" width="213.15844122715708"><g transform="matrix(1,0,0,1,0,0)"><svg width="213.15844122715708" viewBox="0.8 -34.9 67.9 35.5" height="111.44513495676107" data-palette-color="#ffffff"><path d="M13.55 0L0.8-34.3 5.95-34.3 15-9.35 16.7-4.75 16.95-4.75 18.55-9.15 27.65-34.3 32.55-34.3 19.8 0 13.55 0ZM52.7 0.6Q44.3 0.6 40-3.83 35.7-8.25 35.7-17.15L35.7-17.15Q35.7-34.9 53-34.9L53-34.9Q60.1-34.9 64.4-31.75 68.7-28.6 68.7-22.6L68.7-22.6 63.85-22.6Q63.85-26.75 60.95-28.8 58.05-30.85 53-30.85L53-30.85Q46.75-30.85 43.7-27.65 40.65-24.45 40.65-17.15L40.65-17.15 40.65-17.05Q40.7-9.8 43.67-6.63 46.65-3.45 52.7-3.45L52.7-3.45Q58.5-3.45 61.22-5.85 63.95-8.25 63.95-13.2L63.95-13.2 63.95-13.7 51.85-13.7 51.85-17.85 68.7-17.85 68.7 0 65 0 64.65-3.8Q60.75 0.6 52.7 0.6L52.7 0.6Z" opacity="1" transform="matrix(1,0,0,1,0,0)" fill="#ffffff" class="wordmark-text-0" data-fill-palette-color="quaternary" id="text-0"></path></svg></g></svg></g></svg></g></svg></g><g transform="matrix(1,0,0,1,40.713262274387006,0)"><svg viewBox="0 0 131.73191667838307 132.8734410863414" height="132.8734410863414" width="131.73191667838307"><g><svg xmlns="http://www.w3.org/2000/svg" xmlns:xlink="http://www.w3.org/1999/xlink" version="1.1" x="0" y="0" viewBox="21.200000000000014 20.900000000000006 57.699999999999974 58.2" enable-background="new 0 0 100 100" xml:space="preserve" height="132.8734410863414" width="131.73191667838307" class="icon-icon-0" data-fill-palette-color="quaternary" id="icon-0"><g fill="#ffffff" data-fill-palette-color="quaternary"><path d="M58.7 79.1h15.6c2.5 0 4.6-2.1 4.6-4.6v-0.8-8.5V45.1v-2.6-1.3c0-2.5-2.1-4.6-4.6-4.6H58.7c-2.5 0-4.6 2.1-4.6 4.6v1.3 31.2 0.8C54.2 77.1 56.2 79.1 58.7 79.1zM66.5 77.8c-1 0-1.8-0.8-1.8-1.8s0.8-1.8 1.8-1.8c1 0 1.8 0.8 1.8 1.8S67.5 77.8 66.5 77.8zM57.7 42.9C57.7 42.9 57.7 42.9 57.7 42.9l17.6 0c0 0 0.1 0 0.1 0v30c0 0-0.1 0-0.1 0H57.8c0 0-0.1 0-0.1 0V42.9zM25.5 27.2c0.1 0 0.1 0 0.2 0h32.3c0.1 0 0.1 0 0.2 0v6c0.2 0 0.5 0 0.7 0h3.6v-6.9h0l0-0.7c0-1.9-1.2-3.6-2.9-4.3-0.6-0.2-1.2-0.4-1.8-0.4l-15.9 0-16 0c-0.6 0-1.3 0.1-1.8 0.4-1.7 0.7-2.9 2.4-2.9 4.3v0.8 42.3l0 5.7c0 2.6 2.1 4.7 4.7 4.7l8.2 0c0 0 0 0 0 0l7.7 0 7.7 0c0 0 0 0 0 0l2.7 0c-0.9-1.3-1.4-2.9-1.4-4.6v-2.7h-3.3H25.6c-0.1 0-0.1 0-0.2 0L25.5 27.2C25.5 27.2 25.5 27.2 25.5 27.2zM41.7 73.8c1 0 1.8 0.8 1.8 1.8s-0.8 1.8-1.8 1.8c-1 0-1.8-0.8-1.8-1.8S40.8 73.8 41.7 73.8z" fill="#ffffff" data-fill-palette-color="quaternary"></path></g></svg></g></svg></g><g></g></svg></g></svg></g></svg></g></svg></g><defs></defs></svg><rect width="333.90454557049503" height="333.90454557049503" fill="none" stroke="none" visibility="hidden"></rect></g></svg></g></svg>